<svg xmlns="http://www.w3.org/2000/svg" xmlns:xlink="http://www.w3.org/1999/xlink" width="1800" zoomAndPan="magnify" viewBox="0 0 1350 337.499995" height="450" preserveAspectRatio="xMidYMid meet" version="1.0"><path fill="#0f488a" d="M 608.125 15.996094 C 612.65625 15.921875 612.65625 15.921875 616.308594 17.164062 L 617.476562 18.332031 C 617.546875 21.574219 617.347656 23.480469 616.308594 26.515625 C 612.332031 32.996094 607.425781 38.8125 602.648438 44.707031 C 583.851562 68.121094 562.738281 95.46875 557.859375 125.878906 C 556.925781 136.320312 558.480469 145.441406 562.535156 155.101562 C 566.058594 161.714844 569.363281 166.996094 575.394531 171.46875 L 575.394531 173.804688 L 577.574219 174.492188 L 580.4375 175.414062 L 583.269531 176.316406 C 585.914062 177.3125 585.914062 177.3125 589.421875 179.652344 C 594.832031 180.777344 600.296875 181.382812 605.789062 181.988281 L 608.546875 182.300781 C 617.347656 182.777344 626.875 180.671875 635.011719 177.3125 C 641.6875 173.15625 646.414062 167.957031 650.207031 161.09375 C 653.140625 154.484375 654.882812 147.160156 654.882812 139.90625 L 651.378906 141.074219 C 650.425781 144.300781 650.425781 144.300781 649.84375 148.160156 C 648.511719 154.492188 646.933594 158.882812 642.703125 163.78125 C 636.847656 169.621094 630.285156 171.808594 622.480469 174.097656 C 617.492188 175.238281 613.214844 175.320312 608.125 174.976562 L 608.125 172.636719 L 605.46875 172.84375 C 599.152344 173.121094 593.839844 173.042969 588.035156 170.371094 C 580.710938 166.226562 574.519531 160.304688 569.925781 153.261719 C 565.460938 145.0625 565.535156 136.171875 565.726562 127.0625 C 566.011719 120.941406 567.5 115.269531 569.550781 109.511719 L 571.886719 109.511719 L 572.839844 106.445312 C 574.195312 102.585938 575.875 99.121094 577.734375 95.484375 C 578.539062 93.546875 579.316406 91.597656 580.070312 89.640625 L 582.410156 89.640625 L 582.847656 86.9375 C 583.578125 83.796875 583.578125 83.796875 585.914062 80.289062 L 588.253906 80.289062 L 588.253906 76.78125 L 590.589844 76.78125 L 590.933594 74.792969 C 591.953125 71.480469 593.578125 69.273438 595.632812 66.480469 C 598.007812 63.183594 600.15625 60.03125 602.136719 56.472656 C 607.550781 46.734375 614.9375 38.195312 622.445312 30.023438 L 624.199219 28.113281 C 632.398438 19.355469 632.398438 19.355469 638.007812 17.164062 L 640.855469 17.164062 C 643.5625 19.0625 643.5625 19.0625 645.53125 21.839844 C 645.933594 24.574219 645.933594 24.574219 645.53125 27.683594 C 643.683594 30.492188 643.683594 30.492188 641.078125 33.457031 L 638.171875 36.851562 L 636.613281 38.65625 C 633.824219 41.945312 631.167969 45.335938 628.507812 48.726562 L 626.855469 50.835938 C 622.011719 57.039062 617.371094 63.367188 612.800781 69.769531 C 611.839844 71.097656 610.878906 72.421875 609.914062 73.75 C 593.164062 96.136719 593.164062 96.136719 584.746094 122.371094 C 584.226562 129.445312 584.109375 136.84375 587.085938 143.414062 C 590.40625 148.390625 593.96875 151.964844 599.066406 155.101562 C 605.792969 156.898438 612.21875 157.152344 619.046875 155.683594 C 623.039062 154.378906 625.578125 152.847656 628.511719 149.84375 C 631.226562 145.492188 631.609375 142.09375 631.796875 137.042969 C 631.84375 135.445312 631.882812 133.847656 631.90625 132.25 C 632.003906 129.933594 632.003906 129.933594 632.675781 125.878906 C 634.734375 123.585938 634.734375 123.585938 637.351562 122.371094 C 639.945312 122.070312 639.945312 122.070312 642.609375 122.226562 C 646.164062 122.40625 649.195312 122.511719 652.546875 121.203125 L 653.714844 117.695312 L 651.378906 117.695312 L 649.859375 114.996094 C 648.078125 111.734375 648.078125 111.734375 645.117188 109.910156 C 635.386719 105.089844 625.691406 102.4375 615.140625 100.160156 L 613.972656 90.808594 C 621.714844 87.300781 621.714844 87.300781 625.660156 87.300781 L 625.660156 84.964844 C 635.820312 84.835938 643.40625 87.386719 652.28125 91.996094 C 658.703125 95.945312 663.394531 99.976562 667.304688 106.445312 L 669.25 109.613281 C 671.25 113.019531 671.25 113.019531 672.097656 115.21875 C 673.144531 117.675781 674.015625 119.324219 675.925781 121.203125 C 680.085938 122.363281 684.125 122.292969 688.417969 122.226562 C 690.664062 122.242188 692.910156 122.265625 695.152344 122.289062 L 698.160156 122.261719 C 698.925781 122.296875 699.6875 122.332031 700.472656 122.371094 L 701.644531 123.539062 C 703.039062 141.777344 700.472656 160.925781 692.773438 177.617188 C 685.378906 191.9375 677.753906 203.28125 664.234375 212.382812 C 646.917969 222.140625 626.828125 227.914062 606.957031 228.746094 C 589.339844 228.355469 571.859375 222.515625 556.675781 213.714844 C 554.523438 212.480469 552.34375 211.359375 550.117188 210.261719 C 545.046875 207.382812 541.496094 202.933594 537.988281 198.355469 L 536.820312 196.015625 C 534.988281 193.46875 533.195312 191.222656 530.972656 189.003906 C 525.316406 179.261719 520.625 168.449219 518.117188 157.441406 C 518.445312 153.882812 518.863281 151.273438 520.453125 148.089844 L 523.960938 148.089844 L 525.128906 145.75 C 531.28125 146.457031 531.28125 146.457031 534.480469 148.089844 C 535.902344 150.519531 536.484375 152.804688 537.175781 155.53125 C 539.964844 166.089844 545.503906 175.371094 553.109375 183.128906 C 554.550781 184.542969 556.011719 185.9375 557.488281 187.3125 L 559.03125 189.003906 L 559.03125 191.339844 L 564.875 193.679688 L 564.875 196.015625 L 567.652344 196.894531 C 571.90625 198.359375 576 200.0625 580.125 201.859375 C 589.925781 205.179688 599.523438 205.765625 609.804688 205.734375 L 613.542969 205.789062 C 621.027344 205.792969 627.464844 204.898438 634.597656 202.613281 C 637.351562 201.859375 637.351562 201.859375 642.027344 201.859375 L 642.027344 199.523438 L 644.808594 198.277344 C 656.003906 193.011719 662.101562 187.605469 669.128906 177.53125 C 677.007812 165.207031 679.25 154.226562 680.601562 139.90625 L 675.925781 139.90625 L 675.324219 143.628906 C 673.789062 152.691406 672.234375 161.003906 667.742188 169.128906 L 666.253906 172.070312 C 662.144531 179.652344 657.542969 184.488281 650.207031 189.003906 C 637.589844 196.34375 624.984375 201.71875 610.171875 202.300781 C 597.390625 201.886719 584.414062 199.664062 573.058594 193.679688 L 573.058594 191.339844 L 570.5 191.121094 C 567.210938 190.171875 567.210938 190.171875 564.582031 187.832031 L 563.144531 186.25 C 561.753906 184.757812 560.3125 183.320312 558.824219 181.929688 C 553.085938 176.492188 549.160156 171.746094 546.171875 164.453125 C 545.765625 163.597656 545.359375 162.742188 544.945312 161.859375 C 538.960938 149.160156 538.28125 137.351562 539.15625 123.539062 C 541.929688 99.082031 559.585938 75.351562 573.640625 55.960938 C 580.847656 46.214844 588.582031 36.675781 597.183594 28.125 C 599.679688 25.613281 601.75 23.042969 603.886719 20.234375 C 605.96875 17.800781 605.96875 17.800781 608.125 15.996094 " fill-opacity="1" fill-rule="nonzero"/><path fill="#1b67ad" d="M 608.125 15.996094 C 612.65625 15.921875 612.65625 15.921875 616.308594 17.164062 L 617.476562 18.332031 C 617.546875 21.574219 617.347656 23.480469 616.308594 26.515625 C 612.332031 32.996094 607.425781 38.8125 602.648438 44.707031 C 583.851562 68.121094 562.738281 95.46875 557.859375 125.878906 C 556.925781 136.320312 558.480469 145.441406 562.535156 155.101562 C 566.058594 161.714844 569.363281 166.996094 575.394531 171.46875 L 575.394531 173.804688 L 577.574219 174.492188 L 580.4375 175.414062 L 583.269531 176.316406 C 585.914062 177.3125 585.914062 177.3125 589.421875 179.652344 C 594.832031 180.777344 600.296875 181.382812 605.789062 181.988281 L 608.546875 182.300781 C 617.347656 182.777344 626.875 180.671875 635.011719 177.3125 C 641.652344 173.175781 646.398438 167.980469 650.207031 161.167969 C 652.722656 155.558594 653.644531 149.921875 654.351562 143.847656 L 654.882812 141.074219 C 658.46875 139.28125 662.210938 139.785156 666.136719 139.832031 L 668.636719 139.847656 C 670.675781 139.863281 672.71875 139.882812 674.757812 139.90625 C 675 146.5 674.394531 152.078125 672.347656 158.390625 L 671.554688 160.84375 C 668.671875 169.296875 664.789062 176.632812 658.523438 183.09375 C 647.851562 192.160156 633.503906 198.8125 619.8125 201.394531 C 606.65625 203.144531 592.511719 201.503906 579.964844 197.078125 C 577.621094 196.039062 575.328125 194.875 573.058594 193.679688 L 573.058594 191.339844 L 570.5 191.121094 C 567.210938 190.171875 567.210938 190.171875 564.582031 187.832031 L 563.144531 186.25 C 561.753906 184.757812 560.3125 183.320312 558.824219 181.929688 C 553.085938 176.492188 549.160156 171.746094 546.171875 164.453125 C 545.765625 163.597656 545.359375 162.742188 544.945312 161.859375 C 538.960938 149.160156 538.28125 137.351562 539.15625 123.539062 C 541.929688 99.082031 559.585938 75.351562 573.640625 55.960938 C 580.847656 46.214844 588.582031 36.675781 597.183594 28.125 C 599.679688 25.613281 601.75 23.042969 603.886719 20.234375 C 605.96875 17.800781 605.96875 17.800781 608.125 15.996094 " fill-opacity="1" fill-rule="nonzero"/><path fill="#59b0e1" d="M 1168.058594 180.820312 L 1171.566406 181.988281 C 1172.371094 185.203125 1172.371094 185.203125 1172.734375 189.003906 C 1171.601562 190.585938 1170.433594 192.144531 1169.230469 193.679688 C 1166.339844 200.457031 1165.242188 207.789062 1164.042969 215.011719 C 1160.976562 233.320312 1160.976562 233.320312 1157.539062 241.605469 L 1154.03125 242.773438 L 1155.203125 247.449219 L 1152.863281 247.449219 L 1153.589844 250.925781 C 1154.335938 256.144531 1153.183594 260.488281 1151.769531 265.496094 L 1151.074219 268.085938 C 1150.515625 270.171875 1149.941406 272.257812 1149.355469 274.335938 L 1145.421875 273.628906 L 1141.171875 273.167969 C 1138.566406 275.089844 1138.566406 275.089844 1136.496094 277.84375 C 1132.464844 281.34375 1128.480469 283.773438 1123.640625 286.027344 L 1123.640625 287.195312 C 1121.59375 287.289062 1119.546875 287.359375 1117.503906 287.414062 L 1114.050781 287.539062 C 1110.78125 287.195312 1110.78125 287.195312 1108.242188 285.5 L 1106.105469 283.6875 L 1102.597656 282.519531 L 1102.160156 284.710938 C 1101.429688 287.195312 1101.429688 287.195312 1099.089844 289.53125 C 1096.386719 290.117188 1096.386719 290.117188 1093.246094 289.53125 C 1089.917969 286.128906 1087.742188 283.542969 1086.234375 279.011719 C 1086.15625 277.1875 1086.132812 275.359375 1086.160156 273.535156 L 1086.191406 270.667969 L 1086.234375 268.492188 C 1083.769531 270.789062 1082.566406 272.324219 1081.046875 275.433594 C 1079.191406 279.066406 1077.761719 281.207031 1074.542969 283.6875 C 1070.742188 284.566406 1070.742188 284.566406 1067.527344 284.855469 L 1067.601562 289.316406 C 1067.65625 292.621094 1067.433594 294.5 1066.359375 297.714844 L 1061.683594 297.714844 C 1060.523438 295.945312 1060.523438 295.945312 1059.347656 293.039062 C 1059.179688 290.023438 1059.128906 287.003906 1059.199219 283.980469 L 1059.230469 281.511719 C 1059.257812 279.507812 1059.300781 277.507812 1059.347656 275.503906 C 1054.503906 277.914062 1054.503906 277.914062 1049.703125 280.402344 C 1047.65625 281.351562 1047.65625 281.351562 1045.320312 281.351562 L 1044.148438 284.855469 C 1042.597656 286.035156 1041.039062 287.203125 1039.472656 288.363281 L 1039.472656 290.703125 L 1034.796875 295.378906 C 1034 296.925781 1033.21875 298.484375 1032.460938 300.054688 L 1030.121094 301.222656 L 1028.953125 304.730469 L 1026.835938 305.09375 L 1024.277344 305.898438 C 1022.652344 308.191406 1021.09375 310.53125 1019.601562 312.914062 L 1017.261719 314.082031 C 1015.242188 315.5625 1013.238281 317.058594 1011.246094 318.574219 C 1008.964844 320 1007.03125 320.585938 1004.40625 321.09375 L 1004.40625 322.265625 L 1002.1875 322.734375 L 999.289062 323.359375 L 996.414062 323.976562 C 993.851562 324.511719 993.851562 324.511719 991.546875 325.769531 C 989.597656 325.816406 987.648438 325.824219 985.703125 325.769531 L 984.53125 323.433594 L 983.363281 323.433594 C 982.851562 320.511719 982.851562 320.511719 983.363281 316.417969 C 985.289062 313.84375 987.375 311.601562 989.640625 309.324219 C 991.617188 307.1875 991.617188 307.1875 992.609375 304.738281 L 992.714844 302.390625 L 991.027344 300.160156 L 989.207031 297.714844 C 988.46875 287.1875 991.667969 275.914062 994.660156 265.894531 L 995.054688 263.816406 L 993.738281 260.96875 L 992.714844 257.972656 L 994.335938 255.550781 C 996.953125 250.800781 996.976562 246.4375 997.316406 241.09375 C 998.257812 229.488281 999.972656 218.109375 1005.574219 207.707031 L 1007.910156 208.875 C 1009.265625 213.957031 1009.285156 218.542969 1008.058594 223.632812 L 1006.742188 227.578125 C 1005.792969 232.582031 1005.15625 236.699219 1006.742188 241.605469 L 1009.082031 242.773438 L 1009.738281 240.4375 C 1012.140625 235.421875 1015.589844 231.414062 1019.601562 227.578125 C 1022.050781 226.113281 1022.050781 226.113281 1024.277344 225.238281 C 1026.761719 225.53125 1026.761719 225.53125 1028.953125 226.410156 L 1031.292969 228.746094 C 1031.632812 231.503906 1031.632812 231.503906 1031.292969 234.59375 C 1029.457031 238.144531 1027.097656 241.117188 1024.277344 243.945312 C 1020.917969 245.113281 1020.917969 245.113281 1018.433594 245.113281 L 1019.601562 248.621094 C 1022.671875 249.699219 1022.671875 249.699219 1026.324219 250.371094 C 1031.359375 251.414062 1035.273438 252.585938 1039.472656 255.632812 L 1039.472656 257.972656 L 1042.980469 259.140625 C 1044.089844 262.066406 1044.089844 262.066406 1044.953125 265.644531 L 1045.84375 269.226562 L 1046.488281 272 C 1050.171875 271.359375 1052.734375 270.628906 1056.132812 268.929688 L 1059.347656 266.152344 C 1059.894531 263.382812 1060.242188 260.769531 1060.515625 257.972656 C 1060.765625 255.90625 1061.015625 253.84375 1061.273438 251.785156 L 1061.6875 248.402344 C 1065.53125 217.460938 1065.53125 217.460938 1072.71875 207.777344 L 1074.542969 206.535156 C 1077.101562 206.902344 1077.101562 206.902344 1079.21875 207.707031 L 1080.386719 212.382812 L 1082.726562 212.382812 C 1083.292969 221.683594 1082.035156 230.375 1079.21875 239.269531 L 1076.878906 241.605469 C 1076.125 244.609375 1076.125 244.609375 1075.710938 247.449219 L 1073.375 247.449219 L 1074.6875 250.371094 C 1075.710938 254.464844 1075.710938 254.464844 1074.835938 258.992188 C 1074.355469 260.605469 1073.871094 262.210938 1073.375 263.816406 C 1072.925781 265.566406 1072.488281 267.320312 1072.058594 269.078125 L 1071.035156 273.167969 L 1074.542969 273.167969 C 1076.425781 270.425781 1078.179688 267.597656 1079.804688 264.691406 C 1080.714844 263.101562 1081.628906 261.515625 1082.542969 259.925781 L 1083.84375 257.664062 C 1085.265625 255.296875 1086.839844 253.105469 1088.570312 250.957031 L 1094.414062 252.125 L 1094.289062 254.324219 C 1094.105469 257.609375 1093.929688 260.894531 1093.757812 264.183594 L 1093.558594 267.640625 L 1093.386719 270.960938 L 1093.21875 274.023438 C 1093.113281 276.871094 1093.113281 276.871094 1094.414062 280.179688 C 1096.695312 279.238281 1096.695312 279.238281 1099.089844 277.84375 C 1101.65625 273.996094 1102.371094 270.992188 1103.476562 266.519531 C 1105.449219 259.367188 1107.820312 253.875 1113.117188 248.621094 L 1116.625 246.28125 C 1119.769531 246.71875 1119.769531 246.71875 1122.46875 247.449219 L 1123.640625 255.632812 L 1121.300781 255.632812 L 1121.082031 258.117188 C 1119.789062 262.691406 1117.441406 264.945312 1114.289062 268.492188 L 1113.117188 270.828125 L 1110.78125 269.660156 L 1108.441406 279.011719 C 1111.59375 280.0625 1114.289062 280.785156 1117.617188 280.730469 C 1123.460938 279.457031 1128.320312 275.578125 1132.992188 272 C 1135.605469 269.570312 1138.113281 267.039062 1140.519531 264.40625 L 1142.34375 262.648438 L 1144.679688 262.648438 L 1145.085938 260.070312 C 1148.375 239.738281 1153.253906 219.867188 1159.511719 200.253906 L 1160.859375 196 C 1164.382812 185.242188 1164.382812 185.242188 1168.058594 180.820312 M 1003.820312 260.96875 C 1001.527344 264.695312 1001.273438 267.765625 1000.984375 272.09375 C 1000.890625 275.816406 1000.921875 279.527344 1000.972656 283.25 C 1001.035156 289.3125 1000.371094 294.28125 998.558594 300.054688 C 1000.613281 300.96875 1000.613281 300.96875 1003.234375 301.222656 C 1006.023438 299.929688 1006.023438 299.929688 1008.863281 297.863281 C 1012.726562 295.242188 1016.578125 292.726562 1020.671875 290.480469 C 1028.8125 286.121094 1028.8125 286.121094 1035.785156 280.179688 C 1038.640625 275.121094 1038.820312 269.773438 1038.8125 264.050781 C 1038.496094 261.394531 1038.496094 261.394531 1036.671875 259.46875 C 1034.082031 257.398438 1032.1875 256.527344 1028.953125 255.632812 C 1019.789062 254.703125 1011.675781 256.054688 1003.820312 260.96875 M 1017.261719 297.714844 L 1017.261719 300.054688 L 1014.632812 300.417969 C 1011.144531 301.292969 1009.4375 302.394531 1006.742188 304.730469 L 1005.136719 306.484375 C 1002.488281 308.929688 999.46875 310.226562 996.222656 311.742188 L 996.222656 314.082031 L 993.882812 316.417969 C 996 317.257812 996 317.257812 998.558594 317.589844 C 1000.839844 316.640625 1000.839844 316.640625 1002.984375 315.011719 L 1005.449219 313.292969 L 1007.984375 311.453125 L 1010.535156 309.667969 C 1014.230469 307.050781 1017.632812 304.5 1020.769531 301.222656 L 1019.601562 297.714844 Z M 1017.261719 297.714844 " fill-opacity="1" fill-rule="nonzero"/><path fill="#1a6998" d="M 729.699219 205.367188 C 732.621094 205.660156 732.621094 205.660156 735.542969 206.535156 C 737.824219 209.960938 738.308594 211.3125 738.757812 215.230469 L 739.105469 217.929688 C 739.042969 220.949219 738.238281 222.664062 736.710938 225.238281 L 734.375 225.238281 L 734.15625 227.796875 C 733.207031 231.085938 733.207031 231.085938 731.011719 234.152344 C 726.570312 237.53125 722.617188 238.472656 717.222656 239.648438 L 714.5 240.4375 L 713.332031 242.773438 L 710.996094 242.773438 L 710.78125 244.910156 L 710.484375 247.742188 L 710.195312 250.535156 C 709.851562 253.097656 709.285156 255.46875 708.65625 257.972656 C 708.347656 259.570312 708.054688 261.171875 707.777344 262.777344 L 707.308594 265.445312 L 706.828125 268.199219 L 706.339844 271.007812 L 705.148438 277.84375 L 702.8125 277.84375 L 703.980469 280.179688 C 703.953125 282.308594 703.921875 284.4375 703.84375 286.5625 C 703.464844 295.820312 703.464844 295.820312 705.878906 304.65625 L 708.65625 308.238281 C 712.203125 309.578125 712.203125 309.578125 715.671875 309.40625 L 718.007812 309.40625 L 718.007812 307.066406 L 720.347656 307.066406 L 721.222656 305.242188 C 722.683594 302.390625 722.683594 302.390625 725.097656 298.519531 C 727.464844 294.378906 728.191406 290.824219 728.53125 286.027344 L 728.3125 281.863281 C 728.183594 271.078125 732.816406 260.242188 737.707031 250.828125 C 739.050781 248.621094 739.050781 248.621094 741.386719 246.28125 L 744.894531 246.28125 L 746.0625 253.296875 L 743.871094 253.585938 L 741.386719 254.464844 C 739.886719 256.785156 739.886719 256.785156 739.050781 259.140625 L 743.726562 261.476562 L 743.726562 264.984375 L 755.414062 267.324219 L 755.804688 264.203125 L 756.363281 260.089844 L 756.898438 256.019531 C 757.765625 252.074219 758.851562 249.503906 761.261719 246.28125 L 763.597656 246.28125 L 764.546875 249.570312 C 765.875 253.136719 766.808594 254.289062 769.441406 256.800781 L 769.441406 260.308594 L 771.78125 260.308594 L 771.78125 257.972656 L 774.117188 257.972656 L 776.457031 249.789062 L 781.132812 248.621094 C 783.46875 252.125 783.46875 252.125 783.734375 255.101562 C 783.722656 256.257812 783.710938 257.414062 783.699219 258.605469 L 783.675781 262.40625 L 783.617188 266.375 L 783.585938 270.378906 C 783.558594 273.648438 783.519531 276.914062 783.46875 280.179688 C 785.765625 279.75 785.765625 279.75 788.144531 279.011719 C 790.335938 275.78125 790.914062 272.597656 791.507812 268.785156 C 793.203125 259.90625 796.996094 253.503906 802.6875 246.574219 L 804.511719 245.113281 L 809.1875 245.113281 C 809.800781 248.335938 810.304688 251.207031 810.355469 254.464844 C 808.894531 258.117188 808.894531 258.117188 806.851562 261.476562 C 803.535156 267.976562 800.925781 274.414062 798.667969 281.351562 L 810.355469 281.351562 L 810.355469 279.011719 C 812.074219 277.835938 812.074219 277.835938 814.449219 276.527344 C 820.1875 273.113281 824.53125 268.671875 829.058594 263.816406 L 832.566406 264.984375 C 831.007812 269.601562 829.082031 272.453125 825.628906 275.871094 L 823.183594 278.339844 L 820.878906 280.179688 L 817.371094 280.179688 L 815.03125 284.855469 L 812.695312 284.855469 L 812.695312 287.195312 C 809.082031 288.242188 806.289062 288.503906 802.613281 287.660156 C 799.71875 286.785156 796.84375 285.851562 793.992188 284.855469 L 793.992188 282.519531 L 790.191406 283.6875 C 785.808594 284.855469 785.808594 284.855469 781.132812 284.855469 C 777.738281 278.492188 777.296875 273.53125 777.503906 266.339844 L 777.625 263.816406 L 774.117188 264.984375 L 773.667969 267.199219 L 772.949219 269.660156 C 770.441406 271.355469 770.441406 271.355469 767.324219 272.804688 L 764.234375 274.277344 C 761.675781 275.332031 759.285156 276.101562 756.585938 276.675781 L 755.414062 272 L 747.234375 272 C 747.34375 272.789062 747.453125 273.578125 747.570312 274.390625 C 747.699219 275.433594 747.828125 276.476562 747.964844 277.550781 L 748.375 280.675781 C 748.402344 283.6875 748.402344 283.6875 747.496094 286.300781 L 746.0625 288.363281 L 742.265625 290.117188 C 739.96875 291.214844 739.96875 291.214844 737.882812 293.039062 C 735.828125 296.480469 734.179688 300.011719 732.492188 303.648438 C 730.394531 308.058594 728.699219 310.84375 725.023438 314.082031 C 721.878906 315.042969 718.945312 315.238281 715.671875 315.25 L 712.171875 315.535156 L 708.65625 315.25 C 704.632812 312.460938 701.933594 308.835938 699.304688 304.730469 C 695.792969 295.910156 694.949219 286.828125 696.148438 277.449219 C 696.632812 274.625 697.175781 271.808594 697.773438 269.003906 L 698.390625 265.945312 C 700.105469 257.792969 702.503906 250.003906 705.320312 242.167969 C 706.445312 237.589844 706.035156 234.511719 705.148438 229.914062 C 705.023438 226.78125 705.09375 223.703125 705.148438 220.5625 L 709.824219 219.394531 L 709.824219 224.070312 L 714.5 224.070312 L 715.34375 221.53125 C 717.082031 217.695312 719.25 215.179688 722.101562 212.089844 L 724.914062 209.003906 C 727.359375 206.535156 727.359375 206.535156 729.699219 205.367188 M 728.53125 211.210938 C 726.4375 212.527344 726.4375 212.527344 725.023438 214.71875 L 724.511719 217.714844 L 723.851562 220.5625 C 722.3125 221.382812 720.753906 222.160156 719.175781 222.902344 C 716.957031 225.59375 716.957031 225.59375 715.671875 228.746094 C 715.910156 231.378906 715.910156 231.378906 716.839844 233.421875 C 721.5625 231.855469 724.304688 229.929688 727.652344 226.261719 C 730.074219 223.457031 731.796875 221.339844 732.894531 217.792969 C 733.285156 214.996094 733.285156 214.996094 733.207031 211.210938 Z M 739.050781 274.335938 L 737.882812 282.519531 L 740.21875 283.6875 C 741.800781 280.523438 741.464844 277.832031 741.386719 274.335938 Z M 739.050781 274.335938 " fill-opacity="1" fill-rule="nonzero"/><path fill="#1d79c4" d="M 182.621094 76.78125 C 188.058594 76.296875 193.539062 76.605469 198.988281 76.78125 L 201.78125 76.871094 C 204.699219 76.96875 207.617188 77.089844 210.53125 77.21875 L 213.308594 77.328125 C 219.332031 77.636719 224.742188 78.660156 230.550781 80.289062 L 230.550781 82.625 L 232.597656 83.285156 C 235.675781 85.25 237.242188 87.445312 238.933594 90.664062 C 240.746094 95.3125 241.273438 99.867188 241.070312 104.835938 C 239.183594 111.128906 236.039062 115.246094 231.71875 120.035156 L 233.640625 121.28125 C 237.792969 124.144531 240.703125 126.457031 243.410156 130.773438 C 244.964844 136.699219 245.355469 142.003906 244.578125 148.089844 C 243.269531 152.457031 241.339844 155.855469 238.277344 159.230469 C 234.433594 162.707031 230.820312 164.3125 225.875 165.621094 C 222.03125 166.0625 218.195312 166.21875 214.332031 166.355469 L 211.070312 166.480469 C 207.824219 166.601562 204.574219 166.703125 201.328125 166.792969 L 198.414062 166.875 C 187.359375 167.148438 187.359375 167.148438 182.621094 166.792969 L 179.117188 164.453125 C 178.6875 161.351562 178.6875 161.351562 178.699219 157.363281 L 178.6875 152.84375 L 178.734375 147.933594 C 178.738281 146.257812 178.738281 144.578125 178.738281 142.898438 C 178.746094 139.375 178.761719 135.851562 178.785156 132.328125 C 178.820312 127.832031 178.832031 123.335938 178.835938 118.839844 C 178.84375 114.535156 178.859375 110.230469 178.878906 105.925781 L 178.886719 103.460938 C 178.945312 86.101562 178.945312 86.101562 180.285156 79.121094 Z M 191.976562 87.300781 L 190.804688 88.472656 C 190.6875 90.367188 190.652344 92.269531 190.648438 94.171875 L 190.644531 97.65625 L 190.660156 101.328125 L 190.644531 105 L 190.648438 108.488281 L 190.65625 111.714844 L 190.804688 114.1875 L 191.976562 115.359375 C 196.90625 115.753906 201.859375 115.738281 206.804688 115.796875 L 211.003906 115.929688 C 218.128906 116.128906 218.128906 116.128906 224.859375 114.183594 C 227.402344 112.195312 229.105469 110.121094 230.445312 107.183594 C 230.789062 102.925781 230.503906 99.980469 229.382812 95.777344 C 227.265625 91.828125 227.265625 91.828125 223.671875 89.425781 C 217.746094 86.222656 211.546875 86.753906 204.980469 86.9375 L 201.234375 86.972656 C 196.601562 87.03125 196.601562 87.03125 191.976562 87.300781 M 193.144531 124.710938 L 190.804688 127.046875 C 190.460938 130.09375 190.460938 130.09375 190.535156 133.628906 L 190.542969 137.585938 L 190.585938 141.730469 L 190.589844 145.894531 C 190.601562 151.085938 190.601562 151.085938 190.804688 156.269531 L 191.976562 157.441406 C 196.496094 157.738281 201.035156 157.65625 205.5625 157.660156 L 209.394531 157.703125 C 216.101562 157.714844 221.941406 157.585938 228.210938 155.101562 C 231.328125 152.332031 231.328125 152.332031 232.886719 148.089844 C 233.628906 142.339844 233.617188 137.179688 231.574219 131.722656 C 228.773438 128.734375 226.160156 127.394531 222.367188 125.878906 C 216.542969 124.277344 210.609375 124.492188 204.613281 124.492188 L 201.375 124.445312 L 198.28125 124.441406 L 195.460938 124.425781 Z M 193.144531 124.710938 " fill-opacity="1" fill-rule="nonzero"/><path fill="#0f488a" d="M 1058.175781 76.78125 C 1060.65625 76.335938 1060.65625 76.335938 1063.753906 76.328125 L 1067.265625 76.292969 L 1071.066406 76.316406 L 1074.964844 76.304688 C 1077.6875 76.304688 1080.410156 76.308594 1083.132812 76.324219 C 1087.308594 76.34375 1091.480469 76.324219 1095.65625 76.300781 C 1098.296875 76.304688 1100.9375 76.308594 1103.578125 76.316406 L 1107.375 76.292969 L 1110.898438 76.328125 L 1114 76.335938 C 1116.625 76.78125 1116.625 76.78125 1118.71875 78.371094 L 1120.132812 80.289062 C 1120.425781 83.355469 1120.425781 83.355469 1120.132812 86.132812 L 1118.964844 87.300781 C 1117.386719 87.445312 1115.800781 87.511719 1114.21875 87.542969 L 1111.167969 87.613281 L 1107.855469 87.671875 L 1104.476562 87.746094 C 1100.902344 87.820312 1097.332031 87.890625 1093.757812 87.960938 L 1086.507812 88.113281 C 1080.574219 88.238281 1074.636719 88.359375 1068.699219 88.472656 C 1068.664062 92.539062 1068.640625 96.605469 1068.625 100.671875 L 1068.59375 104.191406 L 1068.582031 107.535156 L 1068.566406 110.632812 L 1068.699219 113.019531 L 1069.867188 114.1875 C 1072.941406 114.363281 1075.988281 114.464844 1079.0625 114.515625 L 1081.863281 114.582031 C 1084.828125 114.652344 1087.796875 114.714844 1090.761719 114.773438 C 1094.65625 114.851562 1098.550781 114.9375 1102.441406 115.027344 L 1105.167969 115.074219 C 1108.882812 115.164062 1111.910156 115.34375 1115.457031 116.527344 L 1115.457031 124.710938 C 1111.097656 126.164062 1106.984375 126.128906 1102.441406 126.207031 L 1099.636719 126.273438 C 1095.671875 126.363281 1091.707031 126.445312 1087.742188 126.523438 C 1084.847656 126.585938 1081.957031 126.652344 1079.0625 126.71875 L 1076.324219 126.765625 C 1074.171875 126.816406 1072.019531 126.925781 1069.867188 127.046875 L 1068.699219 128.214844 C 1068.601562 130.214844 1068.566406 132.210938 1068.582031 134.210938 L 1068.59375 137.875 L 1068.625 141.730469 L 1068.640625 145.601562 C 1068.65625 148.769531 1068.671875 151.9375 1068.699219 155.101562 L 1073.277344 155.191406 C 1078.867188 155.300781 1084.457031 155.417969 1090.046875 155.535156 C 1092.46875 155.585938 1094.890625 155.636719 1097.3125 155.683594 C 1100.789062 155.75 1104.261719 155.824219 1107.738281 155.902344 L 1111.035156 155.960938 L 1114.085938 156.03125 L 1116.773438 156.085938 C 1118.964844 156.269531 1118.964844 156.269531 1121.300781 157.441406 C 1121.351562 160.167969 1121.351562 162.894531 1121.300781 165.621094 L 1120.132812 166.792969 C 1118.207031 166.941406 1116.28125 167.03125 1114.347656 167.070312 L 1110.613281 167.164062 L 1106.546875 167.246094 L 1102.402344 167.335938 C 1099.503906 167.394531 1096.601562 167.453125 1093.703125 167.507812 C 1089.25 167.59375 1084.800781 167.703125 1080.347656 167.808594 C 1077.539062 167.863281 1074.726562 167.921875 1071.917969 167.976562 L 1067.859375 168.078125 L 1064.109375 168.136719 L 1060.804688 168.207031 L 1058.175781 167.960938 L 1055.839844 165.621094 C 1055.542969 162.125 1055.542969 162.125 1055.535156 157.582031 L 1055.523438 155.074219 C 1055.511719 152.332031 1055.519531 149.589844 1055.527344 146.851562 L 1055.523438 141.144531 C 1055.519531 137.15625 1055.523438 133.167969 1055.535156 129.179688 C 1055.546875 124.066406 1055.539062 118.949219 1055.527344 113.835938 C 1055.519531 109.90625 1055.519531 105.976562 1055.527344 102.050781 C 1055.527344 100.164062 1055.527344 98.277344 1055.519531 96.390625 C 1055.515625 93.753906 1055.523438 91.121094 1055.535156 88.484375 L 1055.542969 83.933594 C 1055.839844 80.289062 1055.839844 80.289062 1058.175781 76.78125 " fill-opacity="1" fill-rule="nonzero"/><path fill="#1a6997" d="M 917.902344 206.535156 C 921.335938 206.609375 921.335938 206.609375 924.914062 207.707031 C 927.105469 210.554688 927.105469 210.554688 928.421875 213.550781 L 928.421875 215.886719 L 930.980469 215.15625 C 934.265625 214.71875 934.265625 214.71875 937.554688 215.816406 L 940.113281 217.058594 L 940.113281 220.5625 L 930.761719 220.5625 L 929.8125 222.464844 L 924.914062 232.253906 L 923.160156 235.835938 L 921.410156 239.269531 L 920.019531 242.117188 C 917.371094 245.863281 914.203125 248.542969 910.699219 251.480469 C 908.460938 253.320312 908.460938 253.320312 906.210938 255.632812 C 905.414062 258.738281 905.414062 258.738281 904.898438 262.207031 L 904.304688 265.761719 L 903.875 268.492188 L 907.382812 267.324219 C 909.746094 264.464844 909.746094 264.464844 912.058594 261.039062 C 917.558594 253.136719 917.558594 253.136719 920.238281 250.957031 C 922.796875 251.324219 922.796875 251.324219 924.914062 252.125 C 925.105469 257.261719 924.953125 261.792969 923.820312 266.8125 C 922.082031 274.683594 921.816406 282.675781 921.410156 290.703125 L 923.015625 288.949219 L 924.914062 287.195312 L 927.253906 287.195312 C 929.402344 281.339844 930.925781 275.996094 931.710938 269.808594 C 932.867188 262.214844 935.777344 256.09375 940.113281 249.789062 C 942.476562 247.066406 942.476562 247.066406 944.789062 245.113281 C 948.003906 245.40625 948.003906 245.40625 950.632812 246.28125 C 951.230469 249.5 951.753906 252.382812 951.800781 255.632812 C 950.269531 259.140625 950.269531 259.140625 948.292969 261.476562 L 945.957031 261.476562 L 945.664062 264.402344 C 944.734375 268.75 943.167969 271.878906 940.980469 275.703125 L 940.113281 277.84375 L 941.28125 281.351562 L 954.140625 279.011719 L 954.140625 276.675781 C 956.144531 274.996094 956.144531 274.996094 958.742188 273.167969 C 962.304688 270.773438 962.304688 270.773438 964.660156 267.324219 L 967 267.324219 L 967 264.984375 C 969.191406 263.742188 969.191406 263.742188 971.675781 262.648438 L 974.011719 263.816406 C 972.902344 267.882812 971.085938 270.589844 968.242188 273.605469 C 962.289062 279.316406 954.984375 284.574219 947.125 287.195312 C 942.574219 287.359375 938.644531 287.238281 934.265625 286.027344 L 933.152344 287.734375 C 929.097656 293.71875 929.097656 293.71875 926.011719 295.960938 C 923.746094 296.546875 923.746094 296.546875 921.261719 296.253906 C 919.070312 295.378906 919.070312 295.378906 916.734375 293.039062 C 916.429688 290.507812 916.429688 290.507812 916.421875 287.390625 L 916.414062 283.976562 L 916.441406 280.402344 L 916.414062 276.863281 L 916.421875 273.4375 L 916.429688 270.308594 C 916.761719 267.015625 917.710938 264.480469 919.070312 261.476562 C 914.46875 265.695312 911.664062 269.671875 908.769531 275.285156 L 906.625 279.402344 L 905.042969 282.519531 L 898.027344 282.519531 L 898.582031 286.785156 L 899.273438 292.308594 L 899.640625 295.121094 C 899.9375 297.539062 900.15625 299.964844 900.367188 302.390625 L 899.199219 304.730469 L 895.691406 304.730469 C 893.699219 301.660156 893.324219 299.652344 893.050781 295.941406 C 893.035156 294.292969 893.03125 292.644531 893.042969 290.996094 L 893.03125 288.308594 C 893.03125 285.429688 893.039062 282.546875 893.0625 279.667969 L 893.066406 276.71875 C 893.179688 239.792969 893.179688 239.792969 896.859375 228.746094 L 893.445312 230.027344 L 888.96875 231.667969 L 886.722656 232.515625 C 882.796875 233.945312 880.0625 234.589844 875.820312 234.589844 L 876.988281 231.085938 C 879.925781 229.546875 879.925781 229.546875 883.636719 228.089844 L 887.304688 226.625 C 891.015625 225.238281 891.015625 225.238281 894.847656 224.15625 L 898.027344 222.902344 C 899.578125 220.960938 899.578125 220.960938 900.222656 218.664062 L 901.535156 214.71875 L 905.042969 214.71875 C 907.015625 216.472656 907.015625 216.472656 908.550781 218.226562 L 910 216.261719 L 911.910156 213.695312 L 913.800781 211.148438 C 915.5625 208.875 915.5625 208.875 917.902344 206.535156 M 916.734375 214.71875 L 917.902344 218.226562 L 922.578125 217.058594 L 922.578125 213.550781 C 919.160156 213.289062 919.160156 213.289062 916.734375 214.71875 M 916.734375 222.902344 L 915.855469 225.09375 L 914.394531 227.578125 L 912.058594 228.601562 L 909.71875 229.914062 C 907.550781 234.683594 907.132812 238.746094 907.382812 243.945312 C 909.605469 243.761719 909.605469 243.761719 912.058594 242.773438 C 915.480469 238.589844 918.347656 233.726562 919.777344 228.492188 C 920.15625 226.082031 920.15625 226.082031 920.238281 222.902344 Z M 916.734375 222.902344 " fill-opacity="1" fill-rule="nonzero"/><path fill="#1d79c4" d="M 436.238281 76.367188 L 439.628906 76.355469 L 443.246094 76.398438 L 446.988281 76.40625 C 449.589844 76.414062 452.191406 76.429688 454.792969 76.453125 C 458.792969 76.488281 462.789062 76.5 466.792969 76.507812 L 474.371094 76.542969 L 478.015625 76.558594 L 481.363281 76.59375 L 484.320312 76.617188 L 486.554688 76.78125 L 487.722656 77.949219 C 487.769531 80.679688 487.769531 83.40625 487.722656 86.132812 C 471.351562 87.394531 455.039062 87.429688 438.625 87.300781 C 437.164062 90.230469 437.324219 92.222656 437.34375 95.496094 L 437.355469 98.988281 L 437.382812 102.644531 L 437.398438 106.328125 C 437.414062 109.339844 437.433594 112.347656 437.457031 115.359375 L 441.371094 115.339844 C 446.164062 115.320312 450.953125 115.304688 455.742188 115.292969 C 457.816406 115.285156 459.890625 115.277344 461.964844 115.269531 C 464.945312 115.253906 467.925781 115.25 470.90625 115.242188 L 473.71875 115.226562 C 477.527344 115.226562 480.578125 115.3125 484.214844 116.527344 L 484.214844 124.710938 C 479.109375 125.941406 474.074219 126.128906 468.851562 126.246094 L 466.125 126.320312 C 463.265625 126.398438 460.40625 126.46875 457.550781 126.535156 L 451.714844 126.6875 C 446.964844 126.816406 442.210938 126.929688 437.457031 127.046875 L 437.457031 156.269531 L 448.074219 156.1875 C 451.464844 156.171875 454.851562 156.15625 458.242188 156.144531 C 460.597656 156.132812 462.957031 156.117188 465.3125 156.097656 C 468.699219 156.066406 472.085938 156.054688 475.472656 156.042969 L 478.671875 156.003906 L 481.648438 156.003906 L 484.265625 155.988281 C 486.554688 156.269531 486.554688 156.269531 490.0625 158.609375 C 490.351562 162.1875 490.351562 162.1875 490.0625 165.621094 L 488.890625 166.792969 C 486.953125 166.894531 485.011719 166.9375 483.070312 166.925781 L 479.3125 166.925781 L 475.226562 166.90625 L 471.0625 166.902344 C 466.65625 166.894531 462.25 166.878906 457.839844 166.867188 C 454.863281 166.859375 451.882812 166.855469 448.902344 166.847656 C 441.578125 166.835938 434.257812 166.816406 426.9375 166.792969 C 424.683594 162.035156 424.285156 158.175781 424.242188 152.933594 L 424.210938 150.566406 C 424.183594 147.996094 424.167969 145.425781 424.164062 142.855469 L 424.132812 137.480469 C 424.113281 133.734375 424.105469 129.984375 424.101562 126.238281 C 424.09375 121.433594 424.050781 116.628906 423.996094 111.824219 C 423.960938 108.128906 423.953125 104.429688 423.953125 100.734375 C 423.949219 98.960938 423.933594 97.191406 423.910156 95.417969 C 423.882812 92.945312 423.878906 90.472656 423.898438 87.996094 L 423.878906 83.734375 L 424.597656 80.289062 C 428.347656 77.109375 431.402344 76.34375 436.238281 76.367188 " fill-opacity="1" fill-rule="nonzero"/><path fill="#11498a" d="M 777.464844 81.988281 C 780.875 84.457031 782.925781 87.042969 784.914062 90.730469 C 786.261719 94.371094 786.277344 97.511719 785.808594 101.328125 L 784.640625 102.5 C 781.898438 102.886719 781.898438 102.886719 778.792969 102.5 C 776.640625 100.320312 776.640625 100.320312 774.703125 97.457031 C 772.375 94.238281 770.679688 92.027344 767.472656 89.640625 C 760.246094 86.515625 752.652344 86.597656 744.894531 87.300781 C 741.644531 88.460938 740.421875 89.503906 737.882812 91.976562 C 736.128906 94.023438 736.128906 94.023438 735.542969 96.652344 C 735.3125 101 735.332031 104.207031 736.710938 108.34375 C 740.21875 109.722656 743.617188 110.8125 747.234375 111.851562 C 778.671875 120.898438 778.671875 120.898438 784.640625 127.046875 C 787.957031 132.023438 788.976562 136.851562 789.375 142.726562 C 789.277344 147.777344 788.328125 151.875 785.808594 156.269531 C 781.582031 161.164062 776.78125 164.832031 770.761719 167.292969 C 765.578125 168.683594 760.226562 168.316406 754.90625 168.179688 L 751.300781 168.132812 C 748.386719 168.089844 745.472656 168.035156 742.558594 167.960938 L 742.558594 165.621094 L 732.035156 163.285156 L 732.035156 160.945312 L 729.992188 160.214844 C 726.367188 158.003906 724.824219 155.214844 722.683594 151.59375 C 721.332031 147.535156 721.433594 144.160156 721.515625 139.90625 C 724.804688 138.589844 724.804688 138.589844 728.53125 137.566406 C 732.035156 139.90625 732.035156 139.90625 733.105469 142.054688 L 733.9375 144.507812 L 734.785156 146.953125 L 735.542969 149.257812 L 736.710938 152.765625 C 741.453125 155.75 746.835938 157.300781 752.378906 157.789062 C 761.183594 157.984375 761.183594 157.984375 769.660156 155.980469 C 772.886719 154.105469 772.886719 154.105469 775.140625 151.960938 C 777.066406 148.007812 777.589844 144.285156 777.625 139.90625 C 777.339844 136.609375 777.339844 136.609375 775.289062 134.0625 C 767.316406 128.40625 756.980469 126.683594 747.597656 124.710938 C 742.570312 123.636719 737.972656 121.941406 733.207031 120.035156 L 733.207031 117.695312 L 729.699219 117.695312 C 727.210938 114.550781 725.359375 111.742188 724.144531 107.90625 C 723.0625 96.527344 723.0625 96.527344 725.605469 90.664062 C 728.542969 85.355469 732.773438 82.238281 737.882812 79.121094 C 749.976562 72.609375 765.945312 75.679688 777.464844 81.988281 " fill-opacity="1" fill-rule="nonzero"/><path fill="#0f488a" d="M 842.660156 76.941406 C 851.699219 77.605469 858.765625 78.835938 866.46875 83.796875 C 870.359375 87.792969 871.96875 91.328125 873.480469 96.652344 C 874.265625 103.914062 874.300781 110.941406 871.507812 117.769531 C 869.902344 120.84375 868.488281 122.699219 866.027344 125.21875 C 856.054688 131.160156 844.488281 130.804688 833.226562 131.210938 L 829.28125 131.363281 C 826.089844 131.488281 822.898438 131.609375 819.707031 131.722656 L 819.621094 134.816406 C 819.507812 138.59375 819.394531 142.367188 819.273438 146.144531 C 819.222656 147.777344 819.171875 149.414062 819.128906 151.050781 C 819.058594 153.398438 818.984375 155.746094 818.910156 158.09375 L 818.78125 162.378906 L 818.539062 165.621094 L 817.371094 166.792969 C 813.277344 166.9375 813.277344 166.9375 809.1875 166.792969 L 808.019531 165.621094 C 807.828125 162.378906 807.714844 159.164062 807.648438 155.921875 L 807.574219 152.886719 C 807.5 149.605469 807.425781 146.328125 807.359375 143.046875 L 807.289062 139.6875 C 806.980469 125.613281 806.734375 111.539062 806.703125 97.457031 L 806.6875 93.460938 L 806.695312 89.800781 L 806.699219 86.683594 C 806.859375 83.640625 807.210938 80.890625 808.019531 77.949219 C 816.847656 73.535156 832.9375 76.4375 842.660156 76.941406 M 820.878906 87.300781 L 818.539062 89.640625 C 818.214844 92.707031 818.214844 92.707031 818.3125 96.261719 L 818.335938 100.234375 L 818.394531 104.398438 L 818.425781 108.589844 C 818.453125 112.015625 818.492188 115.441406 818.539062 118.863281 C 824.082031 121.871094 828.878906 121.527344 835.117188 121.421875 C 841.730469 121.097656 848.398438 120.722656 854.777344 118.863281 C 858.078125 116.78125 858.078125 116.78125 860.621094 114.1875 C 861.851562 110.496094 862.023438 107.695312 862.082031 103.8125 L 862.175781 100.171875 C 861.949219 96.640625 861.949219 96.640625 860.53125 93.503906 C 858.195312 90.703125 856.164062 89.179688 852.738281 87.902344 C 846.949219 86.582031 841.03125 86.851562 835.125 86.9375 L 831.070312 86.925781 C 825.964844 86.929688 825.964844 86.929688 820.878906 87.300781 M 908.550781 76.78125 C 911.839844 76.269531 911.839844 76.269531 915.5625 76.78125 C 919.242188 79.773438 921.636719 82.648438 923.476562 86.976562 C 924.121094 88.664062 924.75 90.359375 925.363281 92.058594 L 926.414062 94.84375 C 927.535156 97.828125 928.636719 100.820312 929.738281 103.8125 C 931.28125 107.945312 932.839844 112.074219 934.394531 116.203125 L 935.558594 119.308594 C 939.476562 129.722656 943.691406 140 948.015625 150.253906 C 948.746094 152.003906 948.746094 152.003906 949.492188 153.792969 L 950.765625 156.808594 C 951.917969 160.117188 952.484375 163.328125 952.96875 166.792969 C 949.828125 167.667969 949.828125 167.667969 945.957031 167.960938 C 943.109375 166.355469 943.109375 166.355469 940.113281 163.285156 C 938.109375 159.605469 936.589844 155.789062 935.070312 151.886719 L 930.761719 141.074219 L 895.691406 141.074219 C 891.003906 152.328125 891.003906 152.328125 886.332031 163.585938 C 885.171875 165.621094 885.171875 165.621094 881.664062 167.960938 C 878.523438 168.105469 878.523438 168.105469 875.820312 167.960938 C 875.007812 165.722656 875.007812 165.722656 874.648438 162.117188 C 875.542969 158.347656 876.925781 154.773438 878.296875 151.15625 L 879.492188 147.898438 C 880.761719 144.449219 882.054688 141.007812 883.34375 137.566406 C 884.171875 135.324219 885 133.082031 885.828125 130.835938 C 888.308594 124.109375 890.828125 117.394531 893.351562 110.679688 L 894.652344 107.21875 C 895.910156 103.867188 897.171875 100.515625 898.4375 97.164062 L 899.582031 94.109375 C 904.691406 80.640625 904.691406 80.640625 908.550781 76.78125 M 912.058594 89.640625 L 911.398438 91.632812 C 907.089844 104.664062 902.707031 117.652344 898.027344 130.554688 L 927.253906 130.554688 C 925.6875 123.507812 924.101562 117.347656 921.480469 110.753906 C 918.789062 103.796875 916.367188 96.839844 914.394531 89.640625 Z M 1021.140625 79.128906 C 1026.785156 82.363281 1031.074219 86.667969 1034.796875 91.976562 C 1036.480469 95.121094 1036.480469 95.121094 1037.136719 97.824219 C 1036.699219 100.527344 1036.699219 100.527344 1035.96875 102.5 L 1028.953125 103.667969 C 1026.375 100.539062 1024.042969 97.453125 1021.867188 94.023438 L 1019.601562 90.808594 L 1016.09375 89.640625 L 1016.09375 87.300781 C 1008.425781 86.023438 1001.144531 85.007812 993.664062 87.59375 C 989.671875 89.253906 986.53125 91.339844 983.363281 94.316406 L 982.195312 96.652344 L 979.855469 96.652344 L 979.417969 99.210938 C 978.6875 102.5 978.6875 102.5 977.519531 105.347656 C 974.324219 113.539062 974.539062 122.683594 975.542969 131.316406 C 976.671875 137.8125 978.398438 143.800781 982.195312 149.257812 C 985.21875 152.492188 988.246094 155.511719 992.472656 157.019531 C 999.441406 158.15625 1007.191406 158.519531 1014.0625 156.765625 C 1018.371094 154.632812 1020.777344 151.367188 1023.402344 147.503906 L 1025.027344 144.835938 C 1026.589844 142.285156 1028.296875 139.933594 1030.121094 137.566406 L 1038.304688 138.738281 C 1038.09375 144.515625 1037.261719 148.53125 1034.214844 153.496094 C 1030.273438 159.003906 1025.472656 162.367188 1019.601562 165.621094 L 1017.480469 166.925781 C 1013.800781 168.417969 1010.328125 168.566406 1006.378906 168.835938 L 1001.863281 169.183594 C 997.207031 169.128906 993.605469 168.253906 989.207031 166.792969 C 987.652344 166.394531 986.09375 165.996094 984.53125 165.621094 L 984.53125 163.285156 L 982.488281 162.960938 C 978.207031 161.585938 975.78125 158.578125 972.722656 155.390625 C 968.152344 149.980469 965.449219 143.855469 963.933594 136.929688 C 962.21875 125.835938 961.152344 114.488281 964.660156 103.667969 C 968.199219 95.367188 972.703125 88.222656 979.855469 82.625 C 986.113281 78.222656 992.945312 76.800781 1000.453125 75.835938 C 1007.695312 75.425781 1014.453125 76.21875 1021.140625 79.128906 " fill-opacity="1" fill-rule="nonzero"/><path fill="#1d79c4" d="M 343.941406 77.949219 C 345.925781 87.011719 346.535156 95.507812 346.351562 104.765625 C 346.269531 114.222656 346.257812 123.660156 346.644531 133.113281 L 346.722656 135.96875 C 346.984375 141.570312 347.917969 145.554688 350.953125 150.425781 C 353.929688 153.105469 356.972656 155.21875 360.304688 157.441406 C 367.265625 158.113281 374.953125 158.582031 381.566406 155.980469 C 384.769531 153.988281 386.324219 152.367188 388.359375 149.257812 L 390.699219 149.257812 L 390.625 145.238281 L 390.699219 141.074219 L 391.867188 139.90625 C 391.949219 138.050781 391.976562 136.195312 391.945312 134.339844 L 391.910156 130.742188 L 391.859375 126.832031 L 391.800781 118.726562 C 391.761719 114.441406 391.722656 110.15625 391.667969 105.871094 C 391.617188 101.753906 391.589844 97.636719 391.566406 93.515625 L 391.5 89.613281 L 391.488281 86.007812 L 391.453125 82.824219 L 391.867188 80.289062 L 395.375 77.949219 C 399.101562 77.804688 399.101562 77.804688 402.386719 77.949219 C 403.558594 83.789062 403.746094 89.375 403.753906 95.300781 L 403.765625 98.300781 C 403.769531 100.390625 403.773438 102.480469 403.773438 104.570312 C 403.777344 107.714844 403.796875 110.859375 403.820312 114.003906 C 403.910156 141.640625 403.910156 141.640625 399.683594 152.839844 C 396.871094 157.734375 393.609375 160.9375 388.945312 164.089844 C 380.175781 168.691406 372.300781 168.617188 362.546875 168.394531 C 356.8125 168.089844 352.269531 167.082031 347.347656 164.011719 C 342.449219 159.859375 339.261719 155.261719 336.5625 149.476562 C 334.464844 139.757812 334.421875 129.777344 334.472656 119.875 L 334.480469 116.3125 C 334.484375 112.609375 334.5 108.90625 334.515625 105.203125 C 334.519531 102.667969 334.527344 100.136719 334.53125 97.605469 C 334.542969 91.445312 334.5625 85.28125 334.589844 79.121094 C 337.753906 77.535156 340.445312 77.875 343.941406 77.949219 " fill-opacity="1" fill-rule="nonzero"/><path fill="#1b67ad" d="M 688.785156 132.890625 L 692.292969 134.0625 C 686.179688 173.84375 686.179688 173.84375 676.683594 186.6875 C 666.699219 198.679688 654.324219 206.945312 639.6875 212.382812 C 624.792969 217.351562 609.773438 219.019531 594.222656 216.246094 C 580.902344 212.75 569.277344 207.160156 559.265625 197.632812 C 555.507812 193.566406 552.238281 189.25 549.679688 184.328125 L 549.679688 181.988281 C 553.609375 183.671875 556.214844 185.785156 559.03125 189.003906 L 559.03125 191.339844 L 564.875 193.679688 L 564.875 196.015625 L 567.652344 196.894531 C 571.90625 198.359375 576 200.0625 580.125 201.859375 C 589.925781 205.179688 599.523438 205.765625 609.804688 205.734375 L 613.542969 205.789062 C 621.027344 205.792969 627.464844 204.898438 634.597656 202.613281 C 637.351562 201.859375 637.351562 201.859375 642.027344 201.859375 L 642.027344 199.523438 L 644.808594 198.277344 C 656.003906 193.011719 662.101562 187.605469 669.128906 177.53125 C 675.402344 167.703125 678.265625 159.835938 679.214844 148.308594 C 679.492188 145.007812 679.945312 142.003906 680.601562 138.738281 C 682.4375 136.121094 682.4375 136.121094 684.621094 134.5 Z M 625.660156 84.964844 C 635.820312 84.835938 643.40625 87.386719 652.28125 91.996094 C 658.703125 95.945312 663.394531 99.980469 667.304688 106.445312 L 669.433594 109.824219 C 671.25 113.019531 671.25 113.019531 672.191406 115.632812 C 673.003906 118.242188 673.003906 118.242188 675.925781 121.203125 C 681.796875 122.261719 687.503906 122.425781 693.460938 122.371094 L 693.460938 125.878906 C 690.035156 129.117188 686.09375 131.085938 681.769531 132.894531 C 676.476562 133.992188 671.246094 134.484375 665.855469 134.742188 C 663.417969 134.867188 660.996094 135.058594 658.5625 135.257812 C 647.40625 136.007812 647.40625 136.007812 642.671875 134.039062 C 639.070312 131.527344 636.179688 128.425781 633.84375 124.710938 C 637.351562 122.371094 637.351562 122.371094 639.828125 122.183594 L 642.539062 122.300781 C 646.09375 122.4375 649.191406 122.507812 652.546875 121.203125 L 653.714844 117.695312 L 651.378906 117.695312 L 649.859375 114.996094 C 648.078125 111.734375 648.078125 111.734375 645.117188 109.910156 C 635.386719 105.09375 625.691406 102.4375 615.140625 100.160156 L 613.972656 90.808594 C 621.714844 87.304688 621.714844 87.304688 625.660156 87.304688 Z M 625.660156 84.964844 " fill-opacity="1" fill-rule="nonzero"/><path fill="#1c78c3" d="M 608.125 15.996094 C 612.730469 15.996094 612.730469 15.996094 616.308594 17.164062 L 617.476562 21.839844 L 614.703125 22.132812 L 611.632812 23.007812 C 610.289062 25.308594 610.289062 25.308594 609.296875 27.683594 L 605.789062 28.855469 C 604.5625 31.015625 604.5625 31.015625 603.449219 33.53125 C 602.308594 35.109375 601.148438 36.675781 599.941406 38.207031 L 601.113281 40.542969 L 598.628906 41.273438 C 594.210938 43.386719 591.355469 46.136719 588.253906 49.894531 C 587.070312 51.890625 585.890625 53.890625 584.800781 55.941406 C 583.488281 58.238281 581.992188 60.230469 580.363281 62.316406 C 575.945312 68.09375 572.195312 74.242188 568.484375 80.492188 C 567.625 81.933594 566.757812 83.371094 565.878906 84.800781 C 556.996094 99.339844 549.472656 114.546875 548.945312 131.867188 C 549.480469 144.894531 553.125 157.054688 557.859375 169.128906 L 557.859375 172.636719 L 560.199219 172.636719 L 564.875 184.328125 L 567.210938 184.328125 C 569.113281 187.25 569.113281 187.25 570.71875 190.171875 L 567.210938 190.171875 C 564.726562 187.90625 564.726562 187.90625 563.226562 186.289062 C 561.796875 184.792969 560.328125 183.335938 558.8125 181.925781 C 553.085938 176.484375 549.15625 171.746094 546.171875 164.453125 C 545.765625 163.597656 545.359375 162.742188 544.945312 161.859375 C 538.960938 149.160156 538.28125 137.351562 539.15625 123.539062 C 541.929688 99.082031 559.585938 75.351562 573.640625 55.960938 C 580.847656 46.214844 588.582031 36.675781 597.183594 28.125 C 599.679688 25.613281 601.75 23.042969 603.886719 20.234375 C 605.964844 17.792969 605.964844 17.792969 608.125 15.996094 " fill-opacity="1" fill-rule="nonzero"/><path fill="#1b67ad" d="M 632.675781 19.503906 C 635.859375 19.046875 638.789062 19.34375 642.027344 19.503906 L 643.195312 23.007812 L 640.199219 24.835938 C 631.632812 30.589844 625.5625 38.742188 619.523438 46.972656 L 617.21875 50.089844 C 615.683594 52.164062 614.152344 54.246094 612.621094 56.324219 C 610.695312 58.929688 608.753906 61.519531 606.796875 64.097656 C 594.234375 80.738281 576.871094 104.710938 574.226562 125.878906 C 573.363281 134.15625 575.9375 141.578125 578.902344 149.257812 C 581.402344 154.753906 584.199219 158.507812 589.074219 162.117188 C 598.386719 167.847656 607.816406 171.210938 618.648438 172.636719 L 618.648438 174.976562 L 608.125 174.976562 L 608.125 172.636719 L 605.46875 172.84375 C 599.152344 173.121094 593.839844 173.042969 588.035156 170.371094 C 580.710938 166.226562 574.519531 160.304688 569.925781 153.261719 C 565.460938 145.0625 565.535156 136.171875 565.726562 127.0625 C 566.011719 120.941406 567.5 115.269531 569.550781 109.511719 L 571.886719 109.511719 L 572.839844 106.445312 C 574.195312 102.585938 575.875 99.121094 577.734375 95.484375 C 578.539062 93.546875 579.316406 91.597656 580.070312 89.640625 L 582.410156 89.640625 L 582.847656 86.9375 C 583.578125 83.796875 583.578125 83.796875 585.914062 80.289062 L 588.253906 80.289062 L 588.253906 76.78125 L 590.589844 76.78125 L 590.933594 74.792969 C 591.953125 71.480469 593.578125 69.273438 595.632812 66.480469 C 598.007812 63.183594 600.15625 60.03125 602.136719 56.472656 C 609.136719 43.882812 619.269531 33.335938 629.167969 23.007812 L 631.027344 20.835938 Z M 632.675781 19.503906 " fill-opacity="1" fill-rule="nonzero"/><path fill="#1a6997" d="M 852.441406 213.550781 L 855.945312 214.71875 C 856.75 217.132812 856.75 217.132812 857.117188 219.394531 L 859.113281 218.949219 C 862.144531 218.28125 865.183594 217.625 868.21875 216.984375 L 871.363281 216.277344 C 877.96875 214.894531 883.199219 214.652344 889.847656 215.886719 L 889.847656 220.5625 L 887.238281 220.78125 L 883.78125 221.078125 C 882.65625 221.167969 881.53125 221.265625 880.371094 221.363281 C 877.238281 221.707031 874.222656 222.230469 871.144531 222.902344 L 871.144531 225.238281 C 866.496094 227.351562 862.152344 228.070312 857.117188 228.746094 L 855.945312 229.914062 C 855.488281 231.878906 855.082031 233.855469 854.703125 235.835938 L 854.078125 239.089844 L 853.609375 241.605469 L 851.269531 241.605469 L 850.101562 255.632812 L 853.609375 254.464844 L 855.875 250.957031 L 858.285156 247.449219 C 860.914062 246.425781 860.914062 246.425781 862.960938 246.28125 C 863.15625 249.707031 863.042969 251.921875 861.71875 255.121094 C 860.398438 257.859375 860.398438 257.859375 860.988281 260.457031 L 861.792969 262.648438 L 862.960938 266.152344 C 864.8125 266.019531 866.664062 265.871094 868.511719 265.714844 L 871.636719 265.46875 C 874.660156 264.984375 876.632812 264.039062 879.324219 262.648438 L 882.832031 262.648438 L 884 268.492188 C 877.804688 270.597656 871.605469 272.589844 865.296875 274.335938 L 865.378906 276.769531 L 865.445312 279.960938 L 865.527344 283.128906 C 865.296875 286.027344 865.296875 286.027344 862.960938 289.53125 C 860.175781 290.644531 860.175781 290.644531 856.96875 291.507812 C 855.90625 291.796875 854.839844 292.09375 853.746094 292.394531 L 851.269531 293.039062 L 851.269531 303.5625 L 846.59375 303.5625 C 843.957031 299.605469 843.828125 297.710938 843.527344 293.039062 C 842.242188 272.246094 844.109375 251.714844 846.59375 231.085938 L 840.75 231.085938 L 840.75 233.421875 L 837.242188 234.59375 L 834.90625 233.421875 L 833.734375 235.761719 L 827.890625 235.761719 L 826.722656 231.085938 L 829.503906 229.929688 C 832.039062 228.875 834.570312 227.8125 837.097656 226.742188 C 839.167969 225.890625 841.257812 225.070312 843.378906 224.359375 C 845.789062 223.601562 845.789062 223.601562 848.933594 221.734375 C 850.621094 219.03125 851.453125 216.621094 852.441406 213.550781 M 853.609375 264.984375 C 851.851562 271.761719 850.902344 277.847656 851.269531 284.855469 L 852.441406 287.195312 C 854.738281 286.339844 854.738281 286.339844 857.117188 284.855469 C 858.636719 282.394531 859.414062 280.453125 859.847656 277.585938 C 859.894531 274.871094 859.871094 272.347656 859.453125 269.660156 C 857.40625 266.632812 857.40625 266.632812 854.777344 264.984375 Z M 853.609375 264.984375 " fill-opacity="1" fill-rule="nonzero"/><path fill="#1d79c4" d="M 271.464844 76.78125 L 271.464844 79.121094 L 273.800781 80.289062 L 272.632812 82.625 L 274.972656 82.625 L 274.972656 157.441406 L 281.984375 156.269531 C 287.097656 155.96875 292.207031 155.949219 297.328125 155.90625 L 301.503906 155.804688 L 305.519531 155.773438 L 309.167969 155.722656 C 312.378906 156.269531 312.378906 156.269531 315.21875 158.273438 L 317.054688 160.945312 L 315.886719 166.792969 L 264.449219 166.792969 C 263.613281 160.921875 263.160156 156.09375 263.253906 150.277344 L 263.289062 147.886719 C 263.328125 145.316406 263.375 142.742188 263.421875 140.167969 L 263.507812 134.777344 C 263.582031 130.070312 263.660156 125.363281 263.742188 120.65625 C 263.824219 115.847656 263.902344 111.035156 263.976562 106.222656 C 264.128906 96.800781 264.285156 87.375 264.449219 77.949219 C 266.789062 76.78125 266.789062 76.78125 271.464844 76.78125 " fill-opacity="1" fill-rule="nonzero"/><path fill="#47b1ee" d="M 1005.574219 207.707031 L 1007.910156 208.875 C 1009.265625 213.957031 1009.285156 218.542969 1008.058594 223.632812 L 1006.742188 227.578125 C 1005.792969 232.582031 1005.15625 236.699219 1006.742188 241.605469 L 1009.082031 242.773438 L 1009.738281 240.4375 C 1012.113281 235.449219 1015.398438 231.164062 1019.601562 227.578125 C 1022.648438 226.644531 1022.648438 226.644531 1025.445312 226.410156 L 1027.785156 227.578125 C 1027.203125 231.945312 1026.761719 234.371094 1024.277344 238.097656 L 1020.769531 238.097656 C 1017.234375 244.785156 1017.234375 244.785156 1016.09375 252.125 L 1019.601562 253.296875 C 1018.628906 253.507812 1017.65625 253.722656 1016.65625 253.9375 L 1012.804688 254.832031 L 1008.984375 255.691406 C 1005.695312 256.609375 1005.695312 256.609375 1003.515625 258.09375 C 998.800781 265.308594 999.023438 275.472656 998.3125 283.816406 C 997.816406 289.160156 997.015625 293.832031 995.054688 298.886719 L 991.546875 297.714844 C 990.066406 294.714844 990.066406 294.714844 989.207031 290.703125 C 989.539062 287.46875 989.972656 284.570312 990.667969 281.425781 L 991.148438 279.023438 C 991.949219 275.113281 992.902344 271.320312 994.089844 267.511719 L 995.054688 263.816406 L 993.8125 260.746094 C 993.449219 259.832031 993.085938 258.914062 992.714844 257.972656 L 994.332031 255.5625 C 996.949219 250.804688 996.976562 246.445312 997.316406 241.09375 C 998.257812 229.488281 999.972656 218.109375 1005.574219 207.707031 " fill-opacity="1" fill-rule="nonzero"/><path fill="#1d79c4" d="M 665.40625 139.90625 C 666.304688 142.617188 666.589844 144.464844 666.210938 147.316406 C 663.171875 158.800781 658.171875 169.433594 650.28125 178.410156 C 643.382812 184.867188 634.578125 187.582031 625.660156 190.171875 C 614.464844 192.441406 603.957031 192.007812 593.089844 188.402344 C 586.9375 185.484375 582.378906 181.050781 577.734375 176.144531 L 581.238281 174.972656 L 584.527344 177.09375 C 590.96875 181.046875 598.414062 181.296875 605.789062 181.988281 L 608.527344 182.289062 C 617.328125 182.796875 626.878906 180.671875 635.011719 177.3125 C 641.652344 173.175781 646.398438 167.980469 650.207031 161.167969 C 652.722656 155.558594 653.644531 149.921875 654.351562 143.847656 L 654.882812 141.074219 C 658.339844 139.347656 661.597656 139.835938 665.40625 139.90625 " fill-opacity="1" fill-rule="nonzero"/><path fill="#1b67ad" d="M 523.960938 145.75 L 532.144531 148.089844 L 530.390625 149.402344 L 528.636719 151.59375 C 528.246094 156.671875 528.988281 160.371094 530.863281 165.070312 L 532.320312 168.730469 L 533.898438 172.5625 L 535.488281 176.496094 C 539.164062 185.429688 543.257812 193.945312 548.042969 202.332031 C 549.679688 205.367188 549.679688 205.367188 549.679688 207.707031 L 546.171875 207.707031 C 544.078125 205.742188 544.078125 205.742188 541.933594 203.175781 L 539.769531 200.628906 C 537.988281 198.355469 537.988281 198.355469 536.820312 196.015625 C 534.988281 193.46875 533.195312 191.222656 530.972656 189.003906 C 525.316406 179.261719 520.625 168.449219 518.117188 157.441406 C 518.445312 153.882812 518.863281 151.273438 520.453125 148.089844 L 523.960938 148.089844 Z M 633.84375 130.554688 C 637.304688 132.160156 640.171875 134.082031 643.195312 136.398438 C 642.214844 143.527344 640.804688 149.503906 636.652344 155.464844 C 634.019531 158.636719 631.742188 160.351562 628 162.117188 C 619.96875 163.996094 612.472656 163.261719 604.617188 160.945312 C 600.527344 159.265625 600.527344 159.265625 597.605469 157.441406 L 595.265625 153.933594 L 598.554688 155.101562 C 605.25 156.984375 612.246094 157.136719 619.046875 155.6875 C 622.796875 154.457031 625.410156 153.019531 628.171875 150.203125 C 630.707031 146.355469 631.203125 143.582031 631.726562 139.027344 C 632.015625 136.589844 632.328125 134.15625 632.675781 131.722656 Z M 633.84375 130.554688 " fill-opacity="1" fill-rule="nonzero"/><path fill="#58b1e3" d="M 1005.574219 207.707031 L 1007.910156 208.875 C 1009.265625 213.957031 1009.285156 218.542969 1008.058594 223.632812 L 1006.742188 227.578125 C 1005.789062 232.605469 1005.191406 236.675781 1006.742188 241.605469 L 1009.082031 243.945312 L 1005.574219 245.113281 L 1005.574219 247.449219 L 1000.898438 247.449219 C 1000.632812 241.117188 1001.519531 236.023438 1003.234375 229.914062 L 998.558594 232.253906 C 999.996094 224.3125 1001.710938 216.496094 1004.40625 208.875 Z M 1005.574219 207.707031 " fill-opacity="1" fill-rule="nonzero"/><path fill="#6ea9ca" d="M 710.996094 239.269531 L 714.5 240.4375 L 713.332031 242.773438 L 710.996094 242.773438 L 710.78125 244.910156 L 710.484375 247.742188 C 710.390625 248.664062 710.292969 249.585938 710.195312 250.535156 C 709.851562 253.097656 709.285156 255.46875 708.65625 257.972656 C 708.347656 259.570312 708.054688 261.171875 707.777344 262.777344 L 707.308594 265.445312 L 706.828125 268.199219 L 706.339844 271.007812 L 705.148438 277.84375 L 702.8125 277.84375 L 703.980469 280.179688 C 704.058594 282.179688 704.085938 284.175781 704.054688 286.171875 L 704.023438 289.394531 L 703.980469 291.871094 L 701.644531 293.039062 C 700.777344 274.089844 703.707031 256.863281 710.996094 239.269531 M 1017.261719 295.378906 L 1020.769531 296.546875 L 1017.261719 297.714844 L 1017.261719 300.054688 L 1015.21875 301.003906 C 1012.585938 302.304688 1012.585938 302.304688 1010.421875 304.019531 C 1007.003906 306.578125 1003.382812 308.789062 999.757812 311.042969 C 997.222656 313.046875 996.246094 314.625 995.054688 317.589844 L 988.039062 317.589844 C 989.207031 314.082031 989.207031 314.082031 991.03125 312.460938 L 993.226562 310.941406 L 995.414062 309.390625 L 997.390625 308.238281 L 999.730469 308.238281 L 998.558594 304.730469 L 1001.265625 304.363281 C 1004.425781 303.820312 1004.425781 303.820312 1006.304688 301.808594 L 1007.910156 300.054688 L 1011.417969 298.886719 L 1014.339844 296.984375 Z M 1017.261719 295.378906 " fill-opacity="1" fill-rule="nonzero"/><path fill="#58b1e3" d="M 902.703125 226.410156 L 906.210938 227.578125 L 905.527344 230.253906 C 902.445312 243.277344 901.375 256.339844 900.367188 269.660156 L 898.027344 269.660156 C 897.511719 259.65625 898.414062 250.058594 899.710938 240.144531 L 900.1875 236.472656 C 901.070312 229.992188 901.070312 229.992188 901.535156 227.578125 Z M 902.703125 226.410156 " fill-opacity="1" fill-rule="nonzero"/><path fill="#6ea9ca" d="M 733.207031 293.039062 L 736.710938 293.039062 C 736.035156 297.941406 734.382812 301.296875 731.742188 305.460938 L 729.679688 308.792969 C 727.226562 311.914062 725.019531 313.449219 721.515625 315.25 L 719.175781 312.914062 L 720.761719 311.234375 C 725.929688 305.585938 729.773438 299.875 733.207031 293.039062 M 871.144531 222.902344 L 871.144531 225.238281 C 866.496094 227.351562 862.152344 228.070312 857.117188 228.746094 L 855.945312 229.914062 C 855.488281 231.878906 855.082031 233.855469 854.703125 235.835938 L 854.078125 239.089844 L 853.609375 241.605469 L 851.269531 241.605469 C 851.125 237.289062 851.136719 233.246094 851.707031 228.964844 C 853.609375 226.410156 853.609375 226.410156 856.160156 225.273438 C 861.273438 223.632812 865.753906 222.71875 871.144531 222.902344 " fill-opacity="1" fill-rule="nonzero"/><path fill="#265487" d="M 777.625 159.777344 L 781.132812 160.945312 C 779.648438 161.898438 778.164062 162.851562 776.675781 163.796875 L 774.167969 165.398438 C 771.265625 167.09375 768.878906 167.929688 765.515625 168.09375 L 762.304688 168.074219 L 758.824219 168.0625 L 755.195312 168.035156 L 751.527344 168.019531 C 748.539062 168.003906 745.546875 167.984375 742.558594 167.960938 L 743.726562 165.621094 L 745.828125 165.589844 C 749.027344 165.519531 752.21875 165.433594 755.414062 165.332031 L 758.726562 165.28125 C 766.316406 165.015625 770.976562 163.367188 777.625 159.777344 " fill-opacity="1" fill-rule="nonzero"/><path fill="#275487" d="M 729.84375 138.007812 C 732.3125 140.144531 732.871094 141.5625 734.007812 144.582031 C 734.519531 146.140625 735.03125 147.699219 735.542969 149.257812 L 736.710938 151.59375 C 734.59375 150.9375 734.59375 150.9375 732.035156 149.257812 C 730.566406 146.59375 729.59375 143.941406 728.53125 141.074219 L 723.851562 141.074219 C 724.492188 146.390625 725.242188 151.328125 727.359375 156.269531 L 730.867188 157.441406 L 732.035156 160.945312 C 729.992188 160.214844 729.992188 160.214844 727.359375 158.609375 C 724.769531 155.128906 722.890625 152.210938 721.515625 148.089844 C 721.46875 145.359375 721.464844 142.632812 721.515625 139.90625 C 726.496094 137.414062 726.496094 137.414062 729.84375 138.007812 " fill-opacity="1" fill-rule="nonzero"/><path fill="#6ea9ca" d="M 736.710938 215.886719 L 739.050781 217.058594 C 738.027344 222.609375 738.027344 222.609375 736.710938 225.238281 L 734.375 225.238281 L 734.15625 227.796875 C 733.207031 231.085938 733.207031 231.085938 730.648438 234.300781 C 727.359375 236.929688 727.359375 236.929688 723.488281 237.878906 L 720.347656 238.097656 C 725.753906 232.398438 725.753906 232.398438 729.699219 231.085938 C 731.015625 228.984375 731.015625 228.984375 732.035156 226.410156 L 733.285156 223.648438 L 734.519531 220.855469 L 735.769531 218.023438 Z M 1024.277344 225.238281 C 1026.46875 225.679688 1026.46875 225.679688 1028.953125 226.410156 L 1031.292969 228.746094 C 1031.65625 231.5 1031.65625 231.5 1031.292969 234.59375 C 1029.757812 237.207031 1029.757812 237.207031 1027.785156 239.632812 L 1025.8125 242.105469 L 1024.277344 243.945312 L 1019.601562 242.773438 L 1021.195312 241.398438 C 1023.5 238.828125 1024.453125 236.425781 1025.664062 233.203125 L 1026.882812 230.011719 L 1027.785156 227.578125 L 1024.277344 226.410156 Z M 1162.214844 210.042969 L 1164.554688 210.042969 C 1162.300781 225.980469 1162.300781 225.980469 1159.878906 233.421875 L 1157.539062 232.253906 L 1157.539062 227.578125 L 1155.203125 226.410156 L 1156.871094 225.03125 C 1158.902344 222.976562 1158.902344 222.976562 1159.519531 220.042969 L 1160.023438 216.910156 C 1160.339844 215.007812 1160.671875 213.105469 1161.046875 211.210938 Z M 1162.214844 210.042969 " fill-opacity="1" fill-rule="nonzero"/><path fill="#275487" d="M 723.851562 106.003906 L 726.191406 106.003906 L 727.359375 109.148438 C 729.972656 113.472656 732.105469 115.039062 736.394531 117.5 C 740.703125 119.714844 745.097656 121.6875 749.570312 123.539062 C 747.617188 124.265625 747.617188 124.265625 744.894531 124.710938 C 741.882812 123.800781 741.882812 123.800781 738.757812 122.445312 L 735.597656 121.097656 L 733.207031 120.035156 L 733.207031 117.695312 L 729.699219 117.695312 C 726.835938 113.988281 724.574219 110.6875 723.851562 106.003906 " fill-opacity="1" fill-rule="nonzero"/><path fill="#54b1e5" d="M 1020.769531 238.097656 L 1024.277344 239.269531 L 1020.769531 242.773438 L 1021.9375 245.113281 L 1018.433594 245.113281 L 1019.601562 248.621094 L 1025.445312 249.789062 L 1025.445312 252.125 L 1028.953125 253.296875 L 1016.09375 252.125 L 1014.925781 247.449219 C 1016.460938 244.457031 1016.460938 244.457031 1018.433594 241.605469 Z M 1020.769531 238.097656 " fill-opacity="1" fill-rule="nonzero"/><path fill="#6ea9ca" d="M 1030.121094 294.210938 C 1032.679688 294.648438 1032.679688 294.648438 1034.796875 295.378906 C 1033.773438 297.644531 1033.773438 297.644531 1032.460938 300.054688 L 1030.121094 301.222656 L 1028.953125 304.730469 L 1024.277344 302.390625 C 1025.226562 299.617188 1025.226562 299.617188 1026.617188 296.546875 Z M 1030.121094 294.210938 " fill-opacity="1" fill-rule="nonzero"/><path fill="#6da9ca" d="M 1014.925781 310.574219 L 1017.261719 314.082031 C 1016.003906 315.039062 1014.734375 315.988281 1013.464844 316.929688 L 1011.328125 318.53125 C 1008.976562 319.988281 1007.09375 320.542969 1004.40625 321.09375 L 1000.898438 322.265625 L 1000.898438 318.757812 L 1009.082031 317.589844 L 1009.082031 315.25 L 1014.925781 312.914062 Z M 1014.925781 310.574219 " fill-opacity="1" fill-rule="nonzero"/><path fill="#285587" d="M 1010.03125 165.550781 L 1013.488281 165.582031 L 1016.09375 165.621094 L 1014.925781 167.960938 C 1011.945312 168.324219 1009.074219 168.558594 1006.085938 168.691406 L 1003.566406 168.828125 C 1001.507812 168.9375 999.449219 169.035156 997.390625 169.128906 L 997.390625 166.792969 C 1001.6875 165.792969 1005.625 165.496094 1010.03125 165.550781 M 767.105469 118.863281 C 772.195312 119.125 775.542969 120.683594 779.746094 123.394531 C 782.472656 125.210938 782.472656 125.210938 784.640625 127.046875 L 785.808594 130.554688 C 782.441406 129.433594 780.265625 128.527344 777.773438 125.953125 C 774.496094 122.769531 771.351562 121.667969 767.105469 120.035156 Z M 767.105469 118.863281 " fill-opacity="1" fill-rule="nonzero"/><path fill="#6ea9ca" d="M 801.003906 267.324219 L 803.34375 268.492188 L 798.667969 280.179688 L 796.328125 279.011719 C 795.234375 277.039062 795.234375 277.039062 795.160156 274.335938 C 796.886719 271.71875 798.851562 269.632812 801.003906 267.324219 " fill-opacity="1" fill-rule="nonzero"/><path fill="#285587" d="M 637.351562 17.164062 C 640.273438 17.382812 640.273438 17.382812 643.195312 18.332031 L 645.53125 21.839844 C 645.679688 24.984375 645.679688 24.984375 645.53125 27.683594 L 640.855469 28.855469 L 641.441406 25.492188 C 642.085938 22.070312 642.085938 22.070312 642.027344 19.503906 L 635.011719 19.503906 Z M 637.351562 17.164062 " fill-opacity="1" fill-rule="nonzero"/><path fill="#46b2f0" d="M 1062.851562 262.648438 L 1066.359375 263.816406 C 1067.59375 268.472656 1067.34375 271.976562 1066.359375 276.675781 L 1064.023438 276.675781 Z M 1062.851562 262.648438 " fill-opacity="1" fill-rule="nonzero"/><path fill="#6ca9cb" d="M 1156.371094 234.59375 L 1158.707031 234.59375 L 1157.539062 241.605469 L 1154.03125 242.773438 L 1155.203125 247.449219 L 1152.863281 247.449219 L 1151.695312 249.789062 L 1152.863281 240.4375 L 1155.203125 240.4375 Z M 1156.371094 234.59375 " fill-opacity="1" fill-rule="nonzero"/><path fill="#285587" d="M 761.261719 84.964844 C 764.402344 85.183594 764.402344 85.183594 768.273438 86.132812 C 771.636719 89.128906 771.636719 89.128906 774.117188 91.976562 L 772.949219 94.316406 L 770.464844 92.125 C 767.039062 89.589844 764.167969 88.441406 760.089844 87.300781 Z M 761.261719 84.964844 " fill-opacity="1" fill-rule="nonzero"/><path fill="#6ea9ca" d="M 943.617188 261.476562 L 945.957031 261.476562 C 945.320312 266.8125 943.859375 270.796875 941.28125 275.503906 L 938.941406 275.503906 C 939.5 273.386719 940.058594 271.265625 940.625 269.148438 L 941.570312 265.574219 C 942.449219 262.648438 942.449219 262.648438 943.617188 261.476562 M 862.960938 280.179688 L 865.296875 282.519531 C 864.859375 285.589844 864.859375 285.589844 864.128906 288.363281 L 857.117188 290.703125 Z M 862.960938 280.179688 " fill-opacity="1" fill-rule="nonzero"/><path fill="#1d79c4" d="M 735.542969 263.816406 L 737.882812 263.816406 L 735.542969 276.675781 L 733.207031 276.675781 C 734.375 267.992188 734.375 267.992188 735.542969 263.816406 " fill-opacity="1" fill-rule="nonzero"/><path fill="#6ea9ca" d="M 746.0625 277.84375 L 748.402344 279.011719 C 747.378906 285.734375 747.378906 285.734375 746.0625 288.363281 L 742.558594 288.363281 Z M 902.703125 226.410156 L 906.210938 227.578125 L 903.875 235.761719 L 901.535156 235.761719 C 901.488281 233.035156 901.488281 230.304688 901.535156 227.578125 Z M 1143.511719 286.027344 C 1145.921875 286.539062 1145.921875 286.539062 1148.1875 287.195312 L 1148.1875 290.703125 L 1143.511719 291.871094 C 1142.855469 289.605469 1142.855469 289.605469 1142.34375 287.195312 Z M 999.730469 279.011719 L 1002.066406 279.011719 L 1002.066406 290.703125 L 999.730469 289.53125 C 998.925781 285.515625 998.925781 285.515625 998.558594 281.351562 Z M 1003.234375 235.761719 L 1005.574219 235.761719 L 1006.011719 238.535156 L 1006.742188 241.605469 L 1009.082031 243.945312 L 1005.574219 245.113281 L 1003.234375 243.945312 Z M 1102.597656 283.6875 C 1101.722656 285.953125 1101.722656 285.953125 1100.261719 288.363281 C 1097.777344 289.242188 1097.777344 289.242188 1095.585938 289.53125 L 1094.414062 286.027344 C 1099.96875 283.6875 1099.96875 283.6875 1102.597656 283.6875 M 949.464844 252.125 L 951.800781 252.125 C 951.164062 256.070312 950.566406 258.066406 948.292969 261.476562 L 945.957031 261.476562 L 947.054688 258.773438 C 947.917969 256.582031 948.71875 254.363281 949.464844 252.125 M 914.394531 221.734375 L 916.734375 221.734375 C 915.785156 224.582031 915.785156 224.582031 914.394531 227.578125 L 910.886719 228.746094 L 909.71875 226.410156 C 911.230469 224.800781 912.789062 223.242188 914.394531 221.734375 " fill-opacity="1" fill-rule="nonzero"/></svg>